<?xml version="1.0" standalone="no"?>
<!DOCTYPE svg PUBLIC "-//W3C//DTD SVG 20010904//EN"
 "http://www.w3.org/TR/2001/REC-SVG-20010904/DTD/svg10.dtd">
<svg version="1.0" xmlns="http://www.w3.org/2000/svg"
 width="2450.000000pt" height="2376.000000pt" viewBox="0 0 2450.000000 2376.000000"
 preserveAspectRatio="xMidYMid meet">

<g transform="translate(0.000000,2376.000000) scale(0.100000,-0.100000)"
fill="#000000" stroke="none">
<path d="M11870 23749 c-1200 -35 -2395 -243 -3535 -616 -2926 -957 -5389
-2975 -6861 -5622 -788 -1416 -1268 -2971 -1413 -4576 -37 -401 -45 -596 -45
-1055 0 -548 23 -929 85 -1433 441 -3584 2571 -6798 5764 -8699 484 -288 1017
-556 1545 -778 2754 -1154 5899 -1278 8755 -343 3082 1008 5642 3189 7079
6033 1045 2068 1442 4380 1150 6695 -451 3565 -2579 6764 -5759 8657 -359 214
-824 457 -1190 623 -1364 619 -2806 983 -4310 1090 -208 14 -826 36 -945 33
-30 -1 -174 -5 -320 -9z m6313 -8567 c208 -102 302 -339 223 -560 -21 -58
-5787 -8986 -5837 -9037 -96 -99 -238 -148 -375 -128 -96 14 -190 60 -252 122
-31 32 -1002 1527 -2787 4292 -3221 4988 -3037 4702 -3059 4759 -24 61 -32
175 -16 241 38 160 144 279 295 331 47 16 370 17 5895 15 l5845 -2 68 -33z"/>
</g>
</svg>
